<?xml version="1.0" standalone="no"?>
<!DOCTYPE svg PUBLIC "-//W3C//DTD SVG 20010904//EN"
 "http://www.w3.org/TR/2001/REC-SVG-20010904/DTD/svg10.dtd">
<svg version="1.0" xmlns="http://www.w3.org/2000/svg"
 width="90.000000pt" height="90.000000pt" viewBox="0 0 90.000000 90.000000"
 preserveAspectRatio="xMidYMid meet">
<metadata>
Created by potrace 1.14, written by Peter Selinger 2001-2017
</metadata>
<g transform="translate(0.000000,90.000000) scale(0.100000,-0.100000)"
fill="#000000" stroke="none">
<path d="M531 674 c0 -11 3 -14 6 -6 3 7 2 16 -1 19 -3 4 -6 -2 -5 -13z"/>
<path d="M185 613 c16 -38 33 -62 22 -30 -4 11 -10 30 -13 43 -3 13 -10 24
-15 24 -5 0 -2 -17 6 -37z"/>
<path d="M269 634 c-3 -5 2 -25 12 -44 21 -40 23 -31 5 19 -7 19 -15 31 -17
25z"/>
<path d="M393 620 c2 -14 8 -34 15 -45 15 -27 14 -8 -3 35 -11 27 -14 30 -12
10z"/>
<path d="M457 628 c29 -14 38 -37 12 -31 -14 4 -19 0 -19 -16 0 -20 5 -21 89
-21 67 0 97 4 120 18 35 19 39 27 14 29 -132 8 -174 13 -185 19 -7 5 -22 9
-33 11 -18 2 -18 1 2 -9z"/>
<path d="M324 601 c21 -23 26 -26 26 -11 0 5 -10 15 -22 21 -23 12 -23 12 -4
-10z"/>
<path d="M180 537 c0 -14 31 -69 36 -64 3 3 -4 20 -15 38 -12 19 -21 30 -21
26z"/>
<path d="M243 505 c0 -22 2 -30 4 -17 2 12 2 30 0 40 -3 9 -5 -1 -4 -23z"/>
<path d="M283 505 c0 -22 2 -30 4 -17 2 12 2 30 0 40 -3 9 -5 -1 -4 -23z"/>
<path d="M361 529 c-1 -9 6 -22 14 -29 8 -7 12 -17 8 -24 -3 -6 0 -5 8 2 12
11 12 15 -2 25 -9 7 -18 19 -22 27 -4 13 -6 12 -6 -1z"/>
<path d="M423 505 c0 -22 2 -30 4 -17 2 12 2 30 0 40 -3 9 -5 -1 -4 -23z"/>
<path d="M493 505 c0 -22 2 -30 4 -17 2 12 2 30 0 40 -3 9 -5 -1 -4 -23z"/>
<path d="M565 505 c0 -19 3 -35 8 -35 4 0 7 16 7 35 0 19 -3 35 -7 35 -5 0 -8
-16 -8 -35z"/>
</g>
</svg>
